<?xml version="1.0" encoding="utf-8"?>
<!-- Generator: Adobe Illustrator 23.1.1, SVG Export Plug-In . SVG Version: 6.00 Build 0)  -->
<svg version="1.1" id="Layer_1" xmlns="http://www.w3.org/2000/svg" xmlns:xlink="http://www.w3.org/1999/xlink" x="0px" y="0px"
	 viewBox="0 0 288 90" style="enable-background:new 0 0 288 90;" xml:space="preserve">
<g>
	<g>
		<path d="M68.12,69.39c-0.79,4.96-2.67,7.05-7.65,8.05c-1.27,0.25-1.39,0.93-1.74,1.84c-1.83,4.72-5.23,6.3-9.35,3.44
			c-10.11-7.01-20.14-14.29-25.3-26.1c-1.37-3.13-3.25-5.24-6.23-6.96c-9.95-5.74-10.03-5.95-4.32-15.85
			c3.91-6.79,8.57-13.11,14.72-18.11c3.63-2.95,5.32-2.61,8.44,0.99c1.17,1.35,2.58,2.48,3.69,3.96c-1.28-1.02-2.61-1.97-3.81-3.06
			c-2.68-2.45-5.42-2.47-8.11-0.18c-5.29,4.51-9.38,9.99-12.64,16.11c-0.93,1.74-0.56,3.14,0.94,4.47
			c6.92,6.17,12.18,13.45,16.05,21.98c3.94,8.71,10.38,15.54,18.82,20.29c1.81,1.01,3.49,0.67,4.93-0.78
			c0.76-0.77,1.33-2.12,2.2-2.32c4.45-1.02,7.02-4.17,9.39-7.65L68.12,69.39z"/>
		<path d="M76.59,61.45c0.49-2.55,2.08-1.47,3.23-0.81c2.51,1.43,4.99,2.94,7.32,4.64c6.03,4.4,11.93,8.99,17.98,13.37
			c2.25,1.63,4.99,4.28,7.56,1.14c2.64-3.23-0.77-5.33-2.75-7.11c-7.07-6.37-14.9-11.85-21.73-18.51c-3.09-3.02-6.29-5.93-9.38-8.95
			C90.59,54.57,102,64.37,113.28,74.3c2.34,2.06,2.76,4.5,0.84,7.03c-1.94,2.56-4.49,3.22-7.3,1.47
			c-8.92-5.56-16.64-12.72-25.1-18.9c-1.57-1.15-2.87-3.02-5.27-2.42C76.46,61.47,76.59,61.45,76.59,61.45z"/>
		<path d="M80.62,28.47c3.95-2.15,6.92-5.19,8.59-9.42c0.65-1.64,0.99-3.41-0.42-4.73c-1.34-1.25-3.02-0.6-4.42,0.11
			c-2.44,1.23-4.8,2.63-7.63,3.24c3-1.92,5.89-4.06,9.04-5.69c2.83-1.47,5.01-0.06,5.45,3.04c0.79,5.51-4.9,12.64-10.63,13.33
			L80.62,28.47z"/>
		<path d="M68.14,69.51c5.56-0.71,7.12-2.19,8.45-8.05c0,0-0.13,0.02-0.13,0.01c2.28,3.4-0.46,5.34-2.32,7.36
			c-1.69,1.83-3.81,2.52-6.02,0.57C68.12,69.39,68.14,69.51,68.14,69.51z"/>
		<path d="M80.61,28.36c-2.74,2.2-6.71,2.58-8.72,5.87c1.74-3.68,4.84-5.29,8.72-5.74C80.62,28.47,80.61,28.36,80.61,28.36z"/>
	</g>
	<g>
		<path d="M221.27,21.75c0.99-4.92,2.95-6.94,7.97-7.74c1.28-0.2,1.43-0.88,1.82-1.77c2.01-4.64,5.48-6.08,9.48-3.07
			c9.82,7.4,19.56,15.08,24.25,27.08c1.24,3.19,3.04,5.37,5.95,7.2c9.71,6.13,9.79,6.34,3.69,16.01
			c-4.18,6.63-9.08,12.76-15.42,17.51c-3.74,2.8-5.42,2.39-8.4-1.32c-1.11-1.39-2.48-2.58-3.53-4.1c1.23,1.07,2.53,2.07,3.69,3.21
			c2.58,2.55,5.32,2.68,8.09,0.5c5.47-4.29,9.77-9.61,13.26-15.59c0.99-1.7,0.68-3.11-0.76-4.51c-6.67-6.44-11.64-13.92-15.17-22.6
			c-3.59-8.85-9.76-15.94-18.01-21.02c-1.76-1.08-3.46-0.81-4.96,0.59c-0.79,0.74-1.42,2.07-2.29,2.23
			c-4.48,0.85-7.18,3.89-9.68,7.27L221.27,21.75z"/>
		<path d="M212.49,29.35c-0.59,2.52-2.13,1.39-3.26,0.68c-2.45-1.53-4.87-3.13-7.13-4.92c-5.85-4.64-11.57-9.45-17.44-14.07
			c-2.19-1.72-4.82-4.47-7.51-1.44c-2.77,3.12,0.56,5.35,2.47,7.22c6.81,6.64,14.44,12.41,20.97,19.36
			c2.96,3.15,5.86,6.36,9.12,9.22c-11.48-9.73-22.49-19.97-33.38-30.35c-2.26-2.15-2.58-4.6-0.57-7.05
			c2.04-2.48,4.61-3.04,7.35-1.18c8.69,5.91,16.13,13.36,24.33,19.88c1.52,1.21,2.75,3.13,5.17,2.63
			C212.62,29.34,212.49,29.35,212.49,29.35z"/>
		<path d="M207.16,62.14c-4.03,1.99-7.12,4.92-8.96,9.07c-0.71,1.61-1.13,3.37,0.23,4.74c1.29,1.3,2.99,0.72,4.42,0.07
			c2.49-1.13,4.9-2.43,7.75-2.94c-3.08,1.8-6.05,3.83-9.26,5.33c-2.89,1.35-5-0.14-5.33-3.26c-0.57-5.53,5.39-12.44,11.14-12.9
			L207.16,62.14z"/>
		<path d="M221.25,21.64c-5.58,0.49-7.2,1.9-8.76,7.71c0,0,0.13-0.01,0.13-0.01c-2.15-3.49,0.67-5.32,2.61-7.26
			c1.76-1.76,3.9-2.37,6.04-0.34C221.27,21.75,221.25,21.64,221.25,21.64z"/>
		<path d="M207.16,62.26c2.83-2.09,6.81-2.31,8.95-5.52c-1.88,3.61-5.05,5.1-8.94,5.4C207.16,62.14,207.16,62.26,207.16,62.26z"/>
	</g>
</g>
</svg>
