<?xml version="1.0" encoding="utf-8"?>
<!-- Generator: Adobe Illustrator 24.0.0, SVG Export Plug-In . SVG Version: 6.00 Build 0)  -->
<svg version="1.1"
	 id="Layer_1" xmlns:cc="http://creativecommons.org/ns#" xmlns:dc="http://purl.org/dc/elements/1.1/" xmlns:inkscape="http://www.inkscape.org/namespaces/inkscape" xmlns:rdf="http://www.w3.org/1999/02/22-rdf-syntax-ns#" xmlns:sodipodi="http://sodipodi.sourceforge.net/DTD/sodipodi-0.dtd" xmlns:svg="http://www.w3.org/2000/svg"
	 xmlns="http://www.w3.org/2000/svg" xmlns:xlink="http://www.w3.org/1999/xlink" x="0px" y="0px" viewBox="0 0 97.8 122.2"
	 style="enable-background:new 0 0 97.8 122.2;" xml:space="preserve">
<style type="text/css">
	.st0{fill:#FFFFFF;}
</style>
<path class="st0" d="M33.1,91.2l21.4-27.8c0.3-0.4,0.3-1,0-1.4c-0.3-0.4-0.8-0.6-1.3-0.4L40,66.9l0-12.1c0-9,7.3-16.3,16.3-16.3
	l3.9,0c9,0,16.3,7.3,16.3,16.3l-0.1,42.7l14,0l0.1-42.7c0-16.7-13.5-30.3-30.2-30.3l-3.9,0c-16.7,0-30.3,13.5-30.3,30.2l0,11.7
	l-0.1,0c0,0.3,0,0.5,0,0.8l-0.6,0l-14.1-5.6c-0.5-0.2-1,0-1.3,0.4c-0.2,0.2-0.2,0.4-0.2,0.7c0,0.2,0.1,0.5,0.2,0.7l21.3,27.8
	c0.2,0.3,0.5,0.4,0.9,0.4C32.5,91.7,32.9,91.5,33.1,91.2z"/>
</svg>
